<svg xmlns="http://www.w3.org/2000/svg" width="25" height="25" viewBox="0 0 25 25" fill="none">
  <g clip-path="url(#clip0_1_3795)">
    <path d="M21.9302 11.4655V12.9655C21.9302 13.1644 21.8512 13.3551 21.7105 13.4958C21.5699 13.6364 21.3791 13.7155 21.1802 13.7155H4.68018C4.48126 13.7155 4.2905 13.6364 4.14985 13.4958C4.00919 13.3551 3.93018 13.1644 3.93018 12.9655V11.4655C3.93018 11.2665 4.00919 11.0758 4.14985 10.9351C4.2905 10.7945 4.48126 10.7155 4.68018 10.7155H21.1802C21.3791 10.7155 21.5699 10.7945 21.7105 10.9351C21.8512 11.0758 21.9302 11.2665 21.9302 11.4655ZM21.1802 16.7155H4.68018C4.48126 16.7155 4.2905 16.7945 4.14985 16.9351C4.00919 17.0758 3.93018 17.2665 3.93018 17.4655V18.9655C3.93018 19.1644 4.00919 19.3551 4.14985 19.4958C4.2905 19.6364 4.48126 19.7155 4.68018 19.7155H21.1802C21.3791 19.7155 21.5699 19.6364 21.7105 19.4958C21.8512 19.3551 21.9302 19.1644 21.9302 18.9655V17.4655C21.9302 17.2665 21.8512 17.0758 21.7105 16.9351C21.5699 16.7945 21.3791 16.7155 21.1802 16.7155ZM21.1802 4.71545H4.68018C4.48126 4.71545 4.2905 4.79447 4.14985 4.93512C4.00919 5.07578 3.93018 5.26654 3.93018 5.46545V6.96545C3.93018 7.16437 4.00919 7.35513 4.14985 7.49578C4.2905 7.63644 4.48126 7.71545 4.68018 7.71545H21.1802C21.3791 7.71545 21.5699 7.63644 21.7105 7.49578C21.8512 7.35513 21.9302 7.16437 21.9302 6.96545V5.46545C21.9302 5.26654 21.8512 5.07578 21.7105 4.93512C21.5699 4.79447 21.3791 4.71545 21.1802 4.71545Z" fill="#8E8E8E"/>
  </g>
  <defs>
    <clipPath id="clip0_1_3795">
      <rect width="24" height="24" fill="white" transform="translate(0.930176 0.215454)"/>
    </clipPath>
  </defs>
</svg>
