<svg xmlns="http://www.w3.org/2000/svg" width="17" height="16" viewBox="0 0 17 16" fill="none">
  <path d="M10.047 12.7134C10.047 13.1201 9.78035 13.6534 9.44035 13.8601L8.50037 14.4668C7.62703 15.0068 6.4137 14.4001 6.4137 13.3201V9.75342C6.4137 9.28008 6.14703 8.67342 5.8737 8.34009L3.31368 5.64675C2.97368 5.30675 2.70703 4.70676 2.70703 4.30009V2.75342C2.70703 1.94675 3.31371 1.34009 4.05371 1.34009H12.947C13.687 1.34009 14.2937 1.94675 14.2937 2.68675V4.16675C14.2937 4.70675 13.9537 5.38009 13.6204 5.71342" stroke="#4C4C4C" stroke-width="1.5" stroke-miterlimit="10" stroke-linecap="round" stroke-linejoin="round"/>
  <path d="M11.2134 11.0132C12.3916 11.0132 13.3468 10.0581 13.3468 8.87992C13.3468 7.70172 12.3916 6.74658 11.2134 6.74658C10.0352 6.74658 9.08008 7.70172 9.08008 8.87992C9.08008 10.0581 10.0352 11.0132 11.2134 11.0132Z" stroke="#4C4C4C" stroke-width="1.5" stroke-linecap="round" stroke-linejoin="round"/>
  <path d="M13.7467 11.4132L13.0801 10.7466" stroke="#4C4C4C" stroke-width="1.5" stroke-linecap="round" stroke-linejoin="round"/>
</svg>