<svg xmlns="http://www.w3.org/2000/svg" width="52" height="19" viewBox="0 0 52 19" fill="none">
  <path d="M0.414352 3.82844L4.76501 3.62229L4.57856 9.90974H8.39057L8.55631 0.294494L12.907 0L12.4926 18.2586L8.14196 18.4648L8.32842 11.7651H4.53712L4.35067 18.2586L0 18.4648L0.414352 3.82844Z" fill="#3B28CC"/>
  <path d="M14.1421 12.5896C14.1421 11.6963 14.2871 10.8855 14.5772 10.1571C14.8672 9.41499 15.2746 8.78281 15.7995 8.26057C16.3243 7.73834 16.9528 7.33292 17.6848 7.04431C18.4306 6.75571 19.2524 6.61141 20.1501 6.61141C21.0479 6.61141 21.8628 6.75571 22.5948 7.04431C23.3406 7.33292 23.976 7.73834 24.5008 8.26057C25.0257 8.78281 25.4331 9.41499 25.7231 10.1571C26.0132 10.8855 26.1582 11.6963 26.1582 12.5896C26.1582 13.4829 26.0132 14.3006 25.7231 15.0428C25.4331 15.7712 25.0257 16.3965 24.5008 16.9187C23.976 17.4409 23.3406 17.8464 22.5948 18.135C21.8628 18.4236 21.0479 18.5679 20.1501 18.5679C19.2524 18.5679 18.4306 18.4236 17.6848 18.135C16.9528 17.8464 16.3243 17.4409 15.7995 16.9187C15.2746 16.3965 14.8672 15.7712 14.5772 15.0428C14.2871 14.3006 14.1421 13.4829 14.1421 12.5896ZM21.8075 16.1972L22.2219 8.75532L18.4928 8.96147L18.0784 16.4033L21.8075 16.1972Z" fill="#080808"/>
  <path d="M27.7669 12.2598L27.394 5.82805L31.5375 4.17888L31.7239 7.97197L34.2515 7.80705V10.0747L31.8068 9.93035L31.9518 12.9813C31.9518 14.012 32.1037 14.7748 32.4076 15.2695C32.7253 15.7505 33.0706 15.991 33.4435 15.991H34.8108V18.2586H33.112C31.3027 18.2586 29.956 17.7639 29.0721 16.7744C28.202 15.7712 27.7669 14.2663 27.7669 12.2598Z" fill="#080808"/>
  <path d="M46.1533 16.3003V18.5679H41.7405C39.6964 18.5679 38.1633 18.0388 37.1412 16.9805C36.1192 15.9086 35.6081 14.4449 35.6081 12.5896C35.6081 11.6963 35.7531 10.8855 36.0432 10.1571C36.3332 9.41499 36.7407 8.78281 37.2655 8.26057C37.7904 7.73834 38.4188 7.33292 39.1508 7.04431C39.8966 6.75571 40.7184 6.61141 41.6162 6.61141C42.5139 6.61141 43.2805 6.75571 43.9158 7.04431C44.5512 7.33292 45.0622 7.73834 45.4489 8.26057C45.8495 8.78281 46.1395 9.41499 46.319 10.1571C46.4986 10.8855 46.5884 11.6963 46.5884 12.5896H39.5859L39.5444 13.0638C39.4892 13.5585 39.5306 14.012 39.6687 14.4243C39.8207 14.8229 40.0278 15.1596 40.2903 15.4344C40.5665 15.7093 40.8842 15.9223 41.2433 16.0735C41.6024 16.2247 41.9753 16.3003 42.362 16.3003H46.1533ZM39.7309 11.3115H42.9214L43.0664 8.75532L39.9588 8.96147L39.7309 11.3115Z" fill="#080808"/>
  <path d="M47.7974 2.79771L51.9409 2.59156L51.5266 18.2586L47.3831 18.4648L47.7974 2.79771Z" fill="#080808"/>
</svg>