<svg xmlns="http://www.w3.org/2000/svg" width="24" height="24" viewBox="0 0 24 24" fill="none">
  <g clip-path="url(#clip0_600_309)">
    <path d="M22.4749 19.5H21.0002V9.00005C21.0002 8.60222 20.8421 8.22069 20.5608 7.93939C20.2795 7.65808 19.898 7.50005 19.5002 7.50005H15.3752C15.2757 7.50005 15.1803 7.53956 15.11 7.60988C15.0397 7.68021 15.0002 7.77559 15.0002 7.87505V19.5H13.5002V3.03849C13.5027 2.80484 13.452 2.5737 13.3519 2.36255C13.2519 2.1514 13.1051 1.96577 12.9227 1.81973C12.6741 1.62589 12.3707 1.51532 12.0556 1.5037C11.7406 1.49209 11.4299 1.58004 11.1677 1.75505L3.66768 6.75005C3.46194 6.88732 3.29333 7.07333 3.17687 7.29153C3.06041 7.50973 2.99971 7.75334 3.00018 8.00067V19.5H1.5255C1.33168 19.4972 1.14398 19.5678 1.00013 19.6978C0.856291 19.8277 0.766986 20.0073 0.750183 20.2004C0.743371 20.3029 0.757726 20.4058 0.792355 20.5027C0.826984 20.5995 0.881148 20.6881 0.951482 20.7631C1.02182 20.8381 1.10682 20.8978 1.20121 20.9386C1.2956 20.9794 1.39737 21.0003 1.50018 21H22.5002C22.603 21.0003 22.7048 20.9794 22.7992 20.9386C22.8935 20.8978 22.9785 20.8381 23.0489 20.7631C23.1192 20.6881 23.1734 20.5995 23.208 20.5027C23.2426 20.4058 23.257 20.3029 23.2502 20.2004C23.2334 20.0073 23.1441 19.8277 23.0002 19.6978C22.8564 19.5678 22.6687 19.4972 22.4749 19.5ZM7.12518 17.25C7.12541 17.3529 7.10449 17.4546 7.06373 17.549C7.02297 17.6434 6.96324 17.7284 6.88825 17.7987C6.81325 17.8691 6.7246 17.9232 6.62779 17.9579C6.53098 17.9925 6.42809 18.0069 6.3255 18C6.13223 17.9832 5.95251 17.8938 5.82256 17.7498C5.69261 17.6057 5.62208 17.4178 5.62518 17.2238V15.7754C5.62254 15.5816 5.69326 15.394 5.82314 15.2502C5.95302 15.1064 6.13247 15.0171 6.3255 15C6.42809 14.9932 6.53098 15.0076 6.62779 15.0422C6.7246 15.0768 6.81325 15.131 6.88825 15.2013C6.96324 15.2717 7.02297 15.3567 7.06373 15.4511C7.10449 15.5455 7.12541 15.6472 7.12518 15.75V17.25ZM7.12518 12C7.12541 12.1029 7.10449 12.2046 7.06373 12.299C7.02297 12.3934 6.96324 12.4784 6.88825 12.5487C6.81325 12.6191 6.7246 12.6732 6.62779 12.7079C6.53098 12.7425 6.42809 12.7569 6.3255 12.75C6.13231 12.733 5.95272 12.6435 5.82282 12.4995C5.69291 12.3555 5.6223 12.1677 5.62518 11.9738V10.5254C5.62254 10.3316 5.69326 10.144 5.82314 10.0002C5.95302 9.85643 6.13247 9.76706 6.3255 9.75005C6.42809 9.74324 6.53098 9.75759 6.62779 9.79222C6.7246 9.82685 6.81325 9.88101 6.88825 9.95135C6.96324 10.0217 7.02297 10.1067 7.06373 10.2011C7.10449 10.2955 7.12541 10.3972 7.12518 10.5V12ZM10.8752 17.25C10.8754 17.3529 10.8545 17.4546 10.8137 17.549C10.773 17.6434 10.7132 17.7284 10.6382 17.7987C10.5633 17.8691 10.4746 17.9232 10.3778 17.9579C10.281 17.9925 10.1781 18.0069 10.0755 18C9.88256 17.9833 9.70311 17.8941 9.57321 17.7504C9.4433 17.6068 9.37256 17.4193 9.37518 17.2257V15.7754C9.37278 15.5818 9.4436 15.3944 9.57346 15.2508C9.70332 15.1072 9.88264 15.018 10.0755 15.001C10.1781 14.9942 10.281 15.0085 10.3778 15.0432C10.4746 15.0778 10.5633 15.132 10.6382 15.2023C10.7132 15.2726 10.773 15.3576 10.8137 15.452C10.8545 15.5464 10.8754 15.6482 10.8752 15.751V17.25ZM10.8752 12C10.8754 12.1029 10.8545 12.2046 10.8137 12.299C10.773 12.3934 10.7132 12.4784 10.6382 12.5487C10.5633 12.6191 10.4746 12.6732 10.3778 12.7079C10.281 12.7425 10.1781 12.7569 10.0755 12.75C9.88264 12.733 9.70332 12.6438 9.57346 12.5002C9.4436 12.3566 9.37278 12.1693 9.37518 11.9757V10.5254C9.37278 10.3318 9.4436 10.1444 9.57346 10.0008C9.70332 9.85723 9.88264 9.76799 10.0755 9.75099C10.1781 9.74417 10.281 9.75853 10.3778 9.79316C10.4746 9.82779 10.5633 9.88195 10.6382 9.95228C10.7132 10.0226 10.773 10.1076 10.8137 10.202C10.8545 10.2964 10.8754 10.3982 10.8752 10.501V12Z" fill="#8E8E8E"/>
  </g>
  <defs>
    <clipPath id="clip0_600_309">
      <rect width="24" height="24" fill="white"/>
    </clipPath>
  </defs>
</svg>