<svg xmlns="http://www.w3.org/2000/svg" width="24" height="24" viewBox="0 0 24 24" fill="none">
  <g clip-path="url(#clip0_600_442)">
    <path d="M20.2496 12.2025C20.2533 12.0675 20.2533 11.9325 20.2496 11.7975L21.6483 10.05C21.7216 9.95829 21.7724 9.8506 21.7965 9.73563C21.8206 9.62067 21.8174 9.50165 21.7871 9.38817C21.5573 8.52637 21.2144 7.69884 20.7671 6.92723C20.7084 6.82628 20.6271 6.7404 20.5294 6.67644C20.4318 6.61248 20.3205 6.57219 20.2046 6.55879L17.9808 6.31129C17.8883 6.21379 17.7946 6.12004 17.6996 6.03004L17.4371 3.80067C17.4236 3.68462 17.3831 3.57333 17.319 3.47567C17.2549 3.37801 17.1688 3.29668 17.0677 3.23817C16.2961 2.79121 15.4686 2.44884 14.6067 2.22004C14.4933 2.18972 14.3742 2.18648 14.2593 2.21058C14.1443 2.23468 14.0366 2.28545 13.9449 2.35879L12.2021 3.75004C12.0671 3.75004 11.9321 3.75004 11.7971 3.75004L10.0496 2.35411C9.9578 2.28076 9.85011 2.23 9.73514 2.2059C9.62018 2.1818 9.50116 2.18504 9.38768 2.21536C8.52588 2.44507 7.69836 2.78806 6.92674 3.23536C6.82579 3.29397 6.73992 3.37535 6.67595 3.473C6.61199 3.57065 6.5717 3.68189 6.5583 3.79786L6.3108 6.02536C6.2133 6.11848 6.11955 6.21223 6.02955 6.30661L3.80018 6.56254C3.68413 6.57605 3.57284 6.61647 3.47518 6.6806C3.37752 6.74473 3.29619 6.83079 3.23768 6.93192C2.79082 7.70363 2.44815 8.53114 2.21862 9.39286C2.18843 9.50641 2.18534 9.62547 2.2096 9.74044C2.23387 9.8554 2.2848 9.96306 2.3583 10.0547L3.74955 11.7975C3.74955 11.9325 3.74955 12.0675 3.74955 12.2025L2.35362 13.95C2.28027 14.0418 2.22951 14.1495 2.20541 14.2645C2.18131 14.3794 2.18455 14.4984 2.21487 14.6119C2.44458 15.4737 2.78757 16.3012 3.23487 17.0729C3.29349 17.1738 3.37486 17.2597 3.47251 17.3236C3.57017 17.3876 3.6814 17.4279 3.79737 17.4413L6.02112 17.6888C6.11424 17.7863 6.20799 17.88 6.30237 17.97L6.56206 20.1994C6.57556 20.3155 6.61598 20.4268 6.68011 20.5244C6.74424 20.6221 6.8303 20.7034 6.93143 20.7619C7.70315 21.2088 8.53066 21.5515 9.39237 21.781C9.50592 21.8112 9.62498 21.8143 9.73995 21.79C9.85491 21.7657 9.96257 21.7148 10.0542 21.6413L11.7971 20.25C11.9321 20.2538 12.0671 20.2538 12.2021 20.25L13.9496 21.6488C14.0413 21.7221 14.149 21.7729 14.264 21.797C14.3789 21.8211 14.4979 21.8179 14.6114 21.7875C15.4734 21.5582 16.3009 21.2152 17.0724 20.7675C17.1733 20.7089 17.2592 20.6276 17.3232 20.5299C17.3871 20.4322 17.4274 20.321 17.4408 20.205L17.6883 17.9813C17.7858 17.8888 17.8796 17.795 17.9696 17.7L20.1989 17.4375C20.315 17.424 20.4263 17.3836 20.5239 17.3195C20.6216 17.2554 20.7029 17.1693 20.7614 17.0682C21.2083 16.2965 21.551 15.4689 21.7805 14.6072C21.8107 14.4937 21.8138 14.3746 21.7895 14.2597C21.7652 14.1447 21.7143 14.037 21.6408 13.9454L20.2496 12.2025ZM11.9996 15.75C11.2579 15.75 10.5329 15.5301 9.91617 15.1181C9.29948 14.706 8.81884 14.1203 8.53501 13.4351C8.25118 12.7499 8.17692 11.9959 8.32161 11.2685C8.4663 10.541 8.82346 9.87284 9.3479 9.34839C9.87235 8.82395 10.5405 8.46679 11.268 8.3221C11.9954 8.1774 12.7494 8.25167 13.4346 8.53549C14.1198 8.81932 14.7055 9.29997 15.1176 9.91666C15.5296 10.5333 15.7496 11.2584 15.7496 12C15.7496 12.9946 15.3545 13.9484 14.6512 14.6517C13.9479 15.355 12.9941 15.75 11.9996 15.75Z" fill="#8E8E8E"/>
  </g>
  <defs>
    <clipPath id="clip0_600_442">
      <rect width="24" height="24" fill="white"/>
    </clipPath>
  </defs>
</svg>