<svg xmlns="http://www.w3.org/2000/svg" width="24" height="24" viewBox="0 0 24 24" fill="none">
  <g clip-path="url(#clip0_600_426)">
    <path d="M15.4189 18.3404C15.4927 18.4536 15.5346 18.5845 15.5401 18.7195C15.5456 18.8545 15.5145 18.9885 15.4502 19.1073C15.3858 19.2261 15.2906 19.3253 15.1745 19.3944C15.0585 19.4636 14.9259 19.5001 14.7908 19.5001H0.958893C0.823795 19.5001 0.69121 19.4636 0.575146 19.3944C0.459082 19.3253 0.363848 19.2261 0.299506 19.1073C0.235165 18.9885 0.204104 18.8545 0.209607 18.7195C0.21511 18.5845 0.256971 18.4536 0.330768 18.3404C1.38649 16.7154 2.93935 15.4752 4.75764 14.8051C3.75245 14.1359 2.9893 13.161 2.58105 12.0245C2.17279 10.888 2.1411 9.65036 2.49067 8.49449C2.84023 7.33862 3.55249 6.32593 4.52212 5.60617C5.49174 4.88642 6.66726 4.4978 7.87483 4.4978C9.0824 4.4978 10.2579 4.88642 11.2275 5.60617C12.1972 6.32593 12.9094 7.33862 13.259 8.49449C13.6086 9.65036 13.5769 10.888 13.1686 12.0245C12.7604 13.161 11.9972 14.1359 10.992 14.8051C12.8103 15.4752 14.3632 16.7154 15.4189 18.3404ZM23.6605 18.3263C22.6044 16.7081 21.0551 15.4734 19.242 14.8051C20.4287 14.0057 21.2662 12.7842 21.5839 11.3892C21.9017 9.99411 21.676 8.53038 20.9526 7.29592C20.2292 6.06146 19.0626 5.14906 17.6902 4.74443C16.3178 4.33979 14.8428 4.47334 13.5655 5.1179C13.5166 5.14312 13.4739 5.17877 13.4404 5.22232C13.4068 5.26588 13.3833 5.31628 13.3714 5.36995C13.3595 5.42362 13.3595 5.47925 13.3715 5.53289C13.3835 5.58654 13.4072 5.6369 13.4408 5.6804C14.3906 6.86522 14.9361 8.32306 14.9973 9.84038C15.0586 11.3577 14.6324 12.8548 13.7811 14.1123C13.7261 14.1945 13.7057 14.295 13.7245 14.3921C13.7433 14.4892 13.7997 14.575 13.8814 14.6307C14.9913 15.4053 15.9414 16.3867 16.6798 17.521C16.9776 17.9771 17.0993 18.5259 17.022 19.0651C17.0133 19.1187 17.0164 19.1736 17.031 19.2259C17.0456 19.2783 17.0714 19.3268 17.1066 19.3682C17.1419 19.4095 17.1857 19.4428 17.235 19.4655C17.2843 19.4883 17.338 19.5001 17.3923 19.5001H23.0455C23.2106 19.5001 23.3712 19.4457 23.5022 19.3452C23.6332 19.2446 23.7274 19.1037 23.7701 18.9441C23.7962 18.8392 23.7999 18.73 23.781 18.6236C23.7621 18.5171 23.7211 18.4159 23.6605 18.3263Z" fill="#8E8E8E"/>
  </g>
  <defs>
    <clipPath id="clip0_600_426">
      <rect width="24" height="24" fill="white"/>
    </clipPath>
  </defs>
</svg>